<?xml version="1.0" encoding="utf-8"?>
<!-- Generator: Adobe Illustrator 15.0.2, SVG Export Plug-In . SVG Version: 6.00 Build 0)  -->
<!DOCTYPE svg PUBLIC "-//W3C//DTD SVG 1.1//EN" "http://www.w3.org/Graphics/SVG/1.1/DTD/svg11.dtd">
<svg version="1.1" xmlns="http://www.w3.org/2000/svg" xmlns:xlink="http://www.w3.org/1999/xlink" x="0px" y="0px"
	 width="316.965px" height="380.429px" viewBox="0 0 316.965 380.429" enable-background="new 0 0 316.965 380.429"
	 xml:space="preserve">
<g id="Ebene_6" display="none">
	<rect x="-120.539" y="-201.284" display="inline" fill="#7C7C7C" width="1379" height="841.89"/>
</g>
<g id="Ebene_8" display="none">
	<rect x="-120.539" y="-201.284" display="inline" fill="#010202" width="1379" height="841.89"/>
</g>
<g id="Ebene_9" display="none">
	<rect x="-120.539" y="-198.838" display="inline" fill="#369997" width="1379" height="839.444"/>
</g>
<g id="Ebene_7">
</g>
<g id="Ebene_1" display="none">
	<g display="inline">
		<path fill="#377578" d="M581.458,256.347c-0.887,0.023-1.717,0.417-2.357,0.994c-0.646,0.577-1.148,1.299-1.561,2.06
			c-0.825,1.529-1.358,3.202-1.799,4.887c-0.866,3.384-1.335,6.863-1.75,10.342c-0.403,3.484-0.695,6.984-1.005,10.496
			c-0.309,3.519-0.671,7.029-1.086,10.544c-0.852,7.022-1.933,14.044-3.537,21.005c-1.614,6.95-3.736,13.876-6.952,20.447
			c-3.192,6.553-7.583,12.769-13.374,17.634c-5.759,4.89-12.775,8.255-20.003,10.107c-7.245,1.884-14.672,2.463-21.972,2.354
			c-7.313-0.117-14.536-0.929-21.653-2.107l5.002-2.525c-1.65,4.536-3.786,8.938-6.34,13.147c-2.571,4.197-5.62,8.151-9.065,11.809
			c-3.436,3.67-7.36,6.936-11.611,9.807c-4.255,2.868-8.885,5.292-13.794,7.108c-4.901,1.834-10.06,3.115-15.324,3.788
			c-5.263,0.633-10.623,0.661-15.965,0.07c-10.704-1.125-21.128-5.028-30.223-10.823l-26.207-16.696l31.887-5.843
			c4.184-0.767,7.932-1.961,11-3.755c3.087-1.778,5.524-4.084,7.616-6.979c2.106-2.874,3.806-6.43,5.099-10.453
			c1.291-4.022,2.174-8.478,2.829-13.117l7.66,15.064c-4.589-2.288-9.098-4.812-13.477-7.6c-4.381-2.781-8.64-5.821-12.666-9.178
			c-8.073-6.678-15.422-14.377-21.622-22.883c-6.167-8.532-11.227-17.777-15.205-27.322c-3.913-9.582-6.718-19.448-8.711-29.327
			c-1.938-9.898-2.966-19.825-3.448-29.662c-0.22-4.922-0.231-9.828-0.149-14.707l0.209-7.489c0.105-2.633,0.303-5.241,0.584-7.825
			c1.116-10.337,3.598-20.293,6.943-29.852c3.381-9.545,7.646-18.715,12.828-27.298c5.157-8.594,11.108-16.656,17.708-24.083
			c6.603-7.427,13.912-14.153,21.659-20.213c7.743-6.071,16-11.391,24.563-16.008c8.558-4.629,17.42-8.576,26.48-11.821
			c9.051-3.267,18.266-5.92,27.575-7.947c4.651-1.026,9.322-1.911,14-2.675c4.685-0.74,9.379-1.35,14.075-1.849
			c18.792-1.964,37.623-2.021,56.226-0.467c-18.598,1.562-37.016,4.071-54.94,8.2c-4.48,1.028-8.926,2.163-13.33,3.408
			c-4.408,1.225-8.775,2.559-13.089,4.017c-8.621,2.933-17.058,6.269-25.19,10.139c-8.122,3.888-15.968,8.234-23.397,13.122
			c-7.421,4.9-14.427,10.325-20.93,16.223c-6.5,5.904-12.422,12.359-17.753,19.207c-5.334,6.846-10.018,14.146-13.954,21.785
			c-3.912,7.647-7.2,15.578-9.573,23.726c-2.399,8.132-3.895,16.471-4.453,24.668c-0.136,2.048-0.204,4.087-0.2,6.104
			c-0.001,0.985,0.024,1.999,0.08,3.143l0.17,3.321c0.247,4.422,0.638,8.813,1.102,13.169c0.883,8.714,2.325,17.274,4.333,25.561
			c1.95,8.299,4.571,16.313,7.912,23.87c3.263,7.59,7.29,14.72,12.095,21.219c9.463,13.113,22.134,23.649,36.818,31.615l9.333,5.063
			l-1.673,10.002c-1.006,6.015-2.517,12.131-4.887,18.265c-2.359,6.112-5.61,12.307-10.231,17.888
			c-4.588,5.579-10.681,10.285-17.247,13.337c-6.576,3.08-13.442,4.615-19.961,5.074l5.681-22.539
			c5.725,4.53,12.409,7.723,19.559,9.446c3.577,0.846,7.301,1.275,11.05,1.29c3.749,0.055,7.53-0.325,11.262-1.148
			c3.726-0.839,7.423-2.061,10.998-3.697c3.582-1.631,6.991-3.727,10.264-6.105c3.266-2.393,6.303-5.175,9.109-8.235
			c2.826-3.05,5.361-6.427,7.621-10.034l1.988-3.173l3.015,0.647c6.713,1.44,13.485,2.52,20.248,2.945
			c6.754,0.424,13.521,0.194,19.994-1.168c6.463-1.355,12.614-3.905,17.825-7.888c5.231-3.95,9.462-9.256,12.737-15.183
			c3.284-5.937,5.714-12.436,7.651-19.098c1.935-6.671,3.384-13.523,4.617-20.424c1.273-6.896,2.147-13.871,3.38-20.847
			c0.633-3.479,1.363-6.957,2.472-10.337c0.565-1.682,1.225-3.353,2.18-4.866c0.478-0.753,1.047-1.464,1.756-2.015
			C579.688,256.65,580.572,256.309,581.458,256.347z"/>
	</g>
	<g>
		<path display="inline" fill="#76A8A8" d="M715.926-36.684c11.128,3.302,22.042,7.522,32.539,12.703
			c5.25,2.584,10.423,5.365,15.46,8.399c5.027,3.048,9.94,6.313,14.701,9.813c18.993,13.996,35.676,31.865,47.188,53.225
			c5.693,10.677,10.107,22.181,12.654,34.201c2.547,12.005,3.343,24.49,2.103,36.79c-1.206,12.304-4.257,24.434-8.958,35.825
			c-4.682,11.401-10.818,22.145-18.097,31.951c-7.269,9.817-15.52,18.829-24.519,26.932c-8.996,8.109-18.67,15.383-28.795,21.882
			c-10.158,6.45-20.763,12.127-31.673,17.067c-10.913,4.94-22.166,9.053-33.587,12.521c-22.873,6.857-46.539,10.819-70.282,11.892
			c-5.935,0.288-11.877,0.362-17.812,0.261c-5.943-0.098-11.743-0.338-17.565-0.583c-11.628-0.533-23.201-1.202-34.801-1.921
			l5.013-2.332c-0.279,0.342-0.415,0.491-0.613,0.717l-0.541,0.597l-1.071,1.127c-0.715,0.731-1.438,1.433-2.169,2.117
			c-1.463,1.367-2.963,2.662-4.498,3.902c-3.071,2.479-6.28,4.738-9.603,6.798c-6.64,4.125-13.75,7.408-21.098,9.856
			c-7.351,2.443-14.934,4.083-22.566,4.874c-7.632,0.798-15.298,0.818-22.859,0.166c-7.563-0.667-15.02-2.002-22.307-3.841
			c-7.281-1.854-14.4-4.277-21.302-7.023c-6.891-2.729-13.804-5.68-20.226-9.471c-3.215-1.865-6.342-3.79-9.558-5.58
			c-3.214-1.79-6.474-3.517-9.779-5.163c3.461,1.285,6.905,2.638,10.289,4.142c3.391,1.486,6.723,3.122,10.055,4.652
			c6.65,3.063,13.536,5.442,20.564,7.563c7.005,2.158,14.054,3.93,21.191,5.192c7.124,1.283,14.313,2.055,21.477,2.195
			c14.317,0.352,28.579-1.916,41.622-7.074c6.513-2.582,12.71-5.88,18.43-9.803c2.856-1.966,5.589-4.097,8.151-6.377
			c1.28-1.141,2.518-2.319,3.692-3.528c0.586-0.604,1.159-1.217,1.704-1.831l0.792-0.917l0.366-0.446
			c0.101-0.126,0.26-0.329,0.269-0.349l1.003-2.362l4.009,0.03c11.553,0.089,23.135,0.135,34.667,0.117
			c5.758-0.005,11.541-0.011,17.181-0.168c5.648-0.159,11.287-0.49,16.912-0.938c22.493-1.863,44.735-6.224,66.127-13.063
			c10.7-3.404,21.167-7.484,31.329-12.166c10.168-4.667,20.01-10.003,29.379-16.019c9.391-5.977,18.331-12.624,26.578-19.989
			c8.241-7.364,15.889-15.354,22.52-24.077c6.614-8.723,12.358-18.066,16.707-28.007c4.337-9.934,7.428-20.387,8.842-31.107
			c2.963-21.441-0.914-43.692-10.332-63.723c-9.313-20.125-23.745-38.021-40.821-52.987c-4.269-3.757-8.714-7.336-13.317-10.723
			c-4.59-3.408-9.323-6.649-14.194-9.695C736.744-26.513,726.515-31.925,715.926-36.684z"/>
	</g>
</g>
<g id="Ebene_4" display="none">
	<path display="inline" fill="none" stroke="#2D6161" stroke-width="8" stroke-miterlimit="10" d="M587.493,280.965"/>
	<path display="inline" fill="none" stroke="#2D6161" stroke-width="10" stroke-miterlimit="10" d="M727.081,6.289
		c65.591,27.231,108.446,72.235,108.446,123.148c0,65.632-71.224,121.446-170.564,142.022"/>
</g>
<g id="Ebene_5" display="none">
	<path display="inline" fill="none" stroke="#2D6161" stroke-width="8" stroke-miterlimit="10" d="M724.983,29.112
		c55.818,24.208,91.309,60.55,91.309,101.184c0,53.772-62.158,100.029-151.329,120.597"/>
</g>
<g id="Ebene_3" display="none">
</g>
<g id="Ebene_2" display="none">
	<polygon fill="#76A8A8" points="784.553,20 671.607,297.839 611.139,297.839 607.608,306.154 680.456,306.154 796.782,20 	"/>
	<g display="inline">
		<path fill="#377578" d="M613.539,381.597c2.214,0.495,4.4,1.027,6.61,1.466c2.197,0.477,4.396,0.916,6.6,1.297
			c4.406,0.759,8.805,1.393,13.199,1.753c8.773,0.747,17.54,0.542,25.836-1.236c4.146-0.879,8.156-2.164,11.956-3.842
			c3.787-1.705,7.375-3.783,10.652-6.282c6.576-4.97,11.966-11.459,16.13-18.762c2.107-3.64,3.919-7.486,5.464-11.462
			c1.586-3.963,2.874-8.068,3.983-12.239c2.217-8.349,3.57-16.997,4.34-25.738c0.762-8.748,0.884-17.601,0.49-26.479
			c-0.186-4.442-0.541-8.887-0.984-13.344c-0.221-2.229-0.494-4.456-0.803-6.683c-0.272-2.236-0.632-4.459-0.967-6.701
			c0.895,2.083,1.668,4.213,2.438,6.351c0.734,2.147,1.411,4.317,2.053,6.501c1.281,4.37,2.301,8.82,3.146,13.312
			c1.664,8.988,2.503,18.164,2.482,27.387c-0.021,9.222-0.953,18.502-2.979,27.637c-1.014,4.567-2.35,9.083-3.974,13.522
			c-1.661,4.425-3.652,8.759-6.023,12.919c-2.405,4.137-5.179,8.107-8.39,11.741c-3.229,3.612-6.848,6.927-10.859,9.704
			c-7.997,5.61-17.417,9.02-26.859,10.187c-9.469,1.195-18.916,0.375-27.89-1.66c-4.491-1.03-8.888-2.334-13.163-3.923
			c-2.136-0.797-4.25-1.631-6.336-2.525C617.617,383.571,615.553,382.634,613.539,381.597z"/>
	</g>
	<g display="inline">
		<path fill="#377578" d="M582.816,211.573l34.827-98.663h50.322l-84.809,208.624h-53.11l12.376-29.152l11.891-28.009L494.95,112.91
			h51.385L582.816,211.573z"/>
	</g>
	<polygon fill="#A9D9D8" points="803.22,36 690.274,313.839 629.805,313.839 626.276,322.154 699.122,322.154 815.449,36 	"/>
</g>
<g id="Ebene_10">
	<path fill="#2D6161" d="M123.461,317.716c-17.825,45.406-72,43-72,43s46,0.5,46.5-54.5c-70.5-35.5-73.11-98.023-72.37-115.524
		c2.37-55.976,34.997-92.833,45.87-106.282c46.5-57.521,160.084-84.404,160.084-84.404S20.961-3.784,0.461,188.722
		c-2.047,19.223-0.023,98.494,65.5,132.494c-3.5,12,1.719,26.748-55,30.5c28,31.5,90.5,47,126-6.5
		c38.5,0,87.25-38.576,123.544-107.594c11.714-22.274,56.46-153.213,56.46-153.213h-50.322l-34.827,98.663L195.334,84.41H143.95
		c0,0,50.943,110.795,51.363,151.463C195.608,264.458,170.961,323.716,123.461,317.716z"/>
	<path display="none" fill="#1AB4B5" d="M11.608,370.717c59.093,43.445,104.854,32.999,146.828-5.526
		c71.025-16.475,111.197-90.449,130.716-127.567c11.714-22.273,56.46-153.213,56.46-153.213H329.29
		c0,0-50.828,259.306-181.602,268.672C93.461,426.716,11.608,370.717,11.608,370.717"/>
	<path display="none" fill="#5CBFBE" d="M12.569,389.695c59.093,43.445,120.854,32.998,162.828-5.527
		c71.025-16.475,118.197-109.449,137.716-146.566c11.714-22.274,56.46-153.213,56.46-153.213H353.25
		c0,0-61.789,270.329-188.602,287.672C110.422,445.693,12.569,389.695,12.569,389.695"/>
	<g>
		<path fill="#14A3A3" d="M231.461,14.716c-21.315,7.891-42.279,16.042-62.345,25.819c-20.058,9.734-39.249,21-56.651,34.489
			c-17.377,13.477-32.972,29.212-45.283,47.427c-6.161,9.091-11.488,18.789-15.759,29.017c-4.247,10.233-7.55,20.969-8.962,32.248
			c-0.347-2.828-0.414-5.69-0.404-8.557c0.056-2.865,0.256-5.732,0.556-8.594c0.602-5.727,1.74-11.403,3.227-16.994
			c3.006-11.179,7.589-21.959,13.32-32.085c11.503-20.279,27.626-37.772,45.958-51.943c18.36-14.216,38.897-25.253,60.233-33.623
			C186.725,23.593,208.93,17.787,231.461,14.716z"/>
	</g>
	<g display="none">
		<path display="inline" fill="#FFFFFF" d="M182.955,8.853c-15.777,5.66-31.283,11.932-46.142,19.434
			c-7.449,3.702-14.734,7.706-21.803,12.035c-7.097,4.278-13.989,8.875-20.605,13.819c-6.599,4.965-13.007,10.166-19.052,15.755
			C69.294,75.47,63.616,81.43,58.268,87.653c-5.353,6.221-10.301,12.779-14.77,19.642c-4.464,6.866-8.451,14.029-11.978,21.405
			c-3.501,7.387-6.461,15.031-8.773,22.854c-2.271,7.824-4.075,15.815-4.869,23.846c-0.197,2.004-0.33,4.007-0.372,5.988
			c-0.03,2.034-0.033,4.13-0.024,6.196c0.016,4.145,0.126,8.282,0.296,12.411c0.328,8.258,1.047,16.485,2.382,24.599
			c1.355,8.106,3.278,16.11,6.012,23.847c2.727,7.738,6.35,15.15,10.707,22.141c4.364,6.992,9.6,13.449,15.362,19.435
			c5.79,5.966,12.157,11.404,18.858,16.434c-14.273-8.723-27.337-19.95-37.198-33.874c-9.914-13.877-16.254-30.228-19.5-46.932
			c-1.665-8.36-2.686-16.816-3.306-25.27c-0.305-4.229-0.47-8.459-0.582-12.685c-0.052-2.119-0.089-4.208-0.105-6.36
			c-0.005-2.204,0.087-4.383,0.249-6.55c0.671-8.653,2.293-17.133,4.678-25.382c2.369-8.252,5.41-16.292,9.017-24.061
			c3.586-7.781,7.827-15.247,12.557-22.371c4.723-7.13,9.935-13.924,15.552-20.35c5.622-6.425,11.726-12.403,18.104-18.035
			c6.396-5.614,13.082-10.887,20.093-15.67c6.994-4.806,14.223-9.241,21.639-13.307c7.443-4.02,15.061-7.68,22.802-11.016
			C150.627,18.015,166.639,12.722,182.955,8.853z"/>
	</g>
	<g>
		<path fill="#92D1DB" d="M231.461,31.84c-18.166,8.613-36.292,16.777-53.865,25.822c-17.571,9.003-34.672,18.72-50.494,30.02
			c-15.774,11.305-30.328,24.241-41.587,39.83c-5.643,7.772-10.386,16.212-14.196,25.207c-1.923,4.492-3.59,9.127-5.155,13.845
			c-1.559,4.715-2.989,9.541-4.702,14.277c0.44-5.006,0.771-10.005,1.44-15.017c0.637-5.012,1.561-10.024,2.829-14.988
			c2.534-9.926,6.584-19.579,11.889-28.49c5.288-8.931,11.816-17.09,19.023-24.478c3.605-3.698,7.42-7.17,11.327-10.512
			c3.939-3.305,8.002-6.441,12.155-9.434c16.684-11.895,34.867-21.229,53.567-28.815C192.436,41.596,211.723,35.694,231.461,31.84z"
			/>
	</g>
</g>
<g id="Ebene_11">
</g>
</svg>
